<mxfile host="Electron" modified="2024-12-03T16:57:22.269Z" agent="Mozilla/5.0 (Windows NT 10.0; Win64; x64) AppleWebKit/537.36 (KHTML, like Gecko) draw.io/21.2.8 Chrome/112.0.5615.165 Electron/24.2.0 Safari/537.36" etag="-Jgo5_iildqB6BsAeGfP" version="21.2.8" type="device">
  <diagram name="第 1 页" id="kKyTWJ9eVcgjGZ0bdbi_">
    <mxGraphModel dx="575" dy="385" grid="1" gridSize="10" guides="1" tooltips="1" connect="1" arrows="1" fold="1" page="1" pageScale="1" pageWidth="827" pageHeight="1169" math="0" shadow="0">
      <root>
        <mxCell id="0" />
        <mxCell id="1" parent="0" />
        <mxCell id="yeJcCRWQxho8-F7l3QaX-1" value="&lt;font style=&quot;font-size: 12px;&quot;&gt;firstStage&lt;/font&gt;" style="ellipse;whiteSpace=wrap;html=1;aspect=fixed;fillColor=#d5e8d4;strokeColor=#82b366;" parent="1" vertex="1">
          <mxGeometry x="280" y="300" width="80" height="80" as="geometry" />
        </mxCell>
        <mxCell id="yeJcCRWQxho8-F7l3QaX-4" value="lfStage" style="ellipse;whiteSpace=wrap;html=1;aspect=fixed;" parent="1" vertex="1">
          <mxGeometry x="520" y="300" width="80" height="80" as="geometry" />
        </mxCell>
        <mxCell id="yeJcCRWQxho8-F7l3QaX-5" value="" style="endArrow=classic;html=1;rounded=0;" parent="1" source="yeJcCRWQxho8-F7l3QaX-1" target="yeJcCRWQxho8-F7l3QaX-4" edge="1">
          <mxGeometry width="50" height="50" relative="1" as="geometry">
            <mxPoint x="460" y="390" as="sourcePoint" />
            <mxPoint x="510" y="340" as="targetPoint" />
          </mxGeometry>
        </mxCell>
        <mxCell id="yeJcCRWQxho8-F7l3QaX-6" value="cmpStage" style="ellipse;whiteSpace=wrap;html=1;aspect=fixed;" parent="1" vertex="1">
          <mxGeometry x="520" y="520" width="80" height="80" as="geometry" />
        </mxCell>
        <mxCell id="yeJcCRWQxho8-F7l3QaX-7" value="" style="endArrow=classic;html=1;rounded=0;" parent="1" source="yeJcCRWQxho8-F7l3QaX-4" target="yeJcCRWQxho8-F7l3QaX-6" edge="1">
          <mxGeometry width="50" height="50" relative="1" as="geometry">
            <mxPoint x="600" y="340" as="sourcePoint" />
            <mxPoint x="696" y="340" as="targetPoint" />
          </mxGeometry>
        </mxCell>
        <mxCell id="yeJcCRWQxho8-F7l3QaX-8" value="completeStage" style="ellipse;whiteSpace=wrap;html=1;aspect=fixed;" parent="1" vertex="1">
          <mxGeometry x="280" y="520" width="80" height="80" as="geometry" />
        </mxCell>
        <mxCell id="yeJcCRWQxho8-F7l3QaX-9" value="" style="endArrow=classic;html=1;rounded=0;" parent="1" source="yeJcCRWQxho8-F7l3QaX-6" target="yeJcCRWQxho8-F7l3QaX-8" edge="1">
          <mxGeometry width="50" height="50" relative="1" as="geometry">
            <mxPoint x="660" y="340" as="sourcePoint" />
            <mxPoint x="816" y="340" as="targetPoint" />
          </mxGeometry>
        </mxCell>
        <mxCell id="yeJcCRWQxho8-F7l3QaX-10" value="" style="endArrow=classic;html=1;rounded=0;" parent="1" source="yeJcCRWQxho8-F7l3QaX-8" target="yeJcCRWQxho8-F7l3QaX-1" edge="1">
          <mxGeometry width="50" height="50" relative="1" as="geometry">
            <mxPoint x="280" y="480" as="sourcePoint" />
            <mxPoint x="330" y="430" as="targetPoint" />
          </mxGeometry>
        </mxCell>
        <mxCell id="yeJcCRWQxho8-F7l3QaX-17" value="&lt;font style=&quot;font-size: 12px;&quot;&gt;assertCompleteStage&lt;/font&gt;" style="ellipse;whiteSpace=wrap;html=1;aspect=fixed;" parent="1" vertex="1">
          <mxGeometry x="80" y="300" width="80" height="80" as="geometry" />
        </mxCell>
        <mxCell id="zmGeRSEzHgtEbsRye0Ud-2" value="" style="endArrow=classic;html=1;rounded=0;" edge="1" parent="1" source="yeJcCRWQxho8-F7l3QaX-17" target="yeJcCRWQxho8-F7l3QaX-8">
          <mxGeometry width="50" height="50" relative="1" as="geometry">
            <mxPoint x="190" y="410" as="sourcePoint" />
            <mxPoint x="256" y="410" as="targetPoint" />
          </mxGeometry>
        </mxCell>
        <mxCell id="zmGeRSEzHgtEbsRye0Ud-3" value="" style="endArrow=classic;html=1;rounded=0;" edge="1" parent="1" source="yeJcCRWQxho8-F7l3QaX-1" target="yeJcCRWQxho8-F7l3QaX-17">
          <mxGeometry width="50" height="50" relative="1" as="geometry">
            <mxPoint x="490" y="490" as="sourcePoint" />
            <mxPoint x="424" y="490" as="targetPoint" />
          </mxGeometry>
        </mxCell>
        <mxCell id="zmGeRSEzHgtEbsRye0Ud-4" value="" style="endArrow=classic;html=1;rounded=0;" edge="1" parent="1" source="yeJcCRWQxho8-F7l3QaX-1" target="zmGeRSEzHgtEbsRye0Ud-6">
          <mxGeometry width="50" height="50" relative="1" as="geometry">
            <mxPoint x="410" y="270" as="sourcePoint" />
            <mxPoint x="410.51383439197036" y="422.97101485930614" as="targetPoint" />
          </mxGeometry>
        </mxCell>
        <mxCell id="zmGeRSEzHgtEbsRye0Ud-6" value="State&amp;nbsp;" style="rounded=1;whiteSpace=wrap;html=1;" vertex="1" parent="1">
          <mxGeometry x="413" y="410" width="70" height="70" as="geometry" />
        </mxCell>
        <mxCell id="zmGeRSEzHgtEbsRye0Ud-7" value="" style="endArrow=classic;html=1;rounded=0;" edge="1" parent="1" source="zmGeRSEzHgtEbsRye0Ud-6" target="yeJcCRWQxho8-F7l3QaX-8">
          <mxGeometry width="50" height="50" relative="1" as="geometry">
            <mxPoint x="410" y="530" as="sourcePoint" />
            <mxPoint x="460" y="480" as="targetPoint" />
          </mxGeometry>
        </mxCell>
        <mxCell id="zmGeRSEzHgtEbsRye0Ud-8" value="" style="curved=1;endArrow=classic;html=1;rounded=0;entryX=0;entryY=0.5;entryDx=0;entryDy=0;" edge="1" parent="1" source="yeJcCRWQxho8-F7l3QaX-8" target="yeJcCRWQxho8-F7l3QaX-8">
          <mxGeometry width="50" height="50" relative="1" as="geometry">
            <mxPoint x="170" y="610" as="sourcePoint" />
            <mxPoint x="220" y="560" as="targetPoint" />
            <Array as="points">
              <mxPoint x="220" y="610" />
              <mxPoint x="170" y="560" />
            </Array>
          </mxGeometry>
        </mxCell>
      </root>
    </mxGraphModel>
  </diagram>
</mxfile>
